<?xml version="1.0" encoding="utf-8"?>
<!-- Generator: Adobe Illustrator 23.0.1, SVG Export Plug-In . SVG Version: 6.00 Build 0)  -->
<svg version="1.1" id="Layer_1" xmlns="http://www.w3.org/2000/svg" xmlns:xlink="http://www.w3.org/1999/xlink" x="0px" y="0px"
	 viewBox="0 0 295.42 374.57" style="enable-background:new 0 0 295.42 374.57;" xml:space="preserve">
<style type="text/css">
	.st0{fill:#FFFFFF;}
</style>
<g>
	<path class="st0" d="M62.09,132.7h19.26v-19.26H62.09V132.7z M34.27,132.7h19.26v-19.26H34.27V132.7z M57.81,22.47
		c-4.73,0-8.56,3.83-8.56,8.56s3.83,8.56,8.56,8.56s8.56-3.83,8.56-8.56S62.54,22.47,57.81,22.47z M66.38,9.63l21.4-3.75L57.81,0
		h-2.14v21.4h2.14l27.83-6.96L66.38,9.63z M233.33,132.7h-19.26v-19.26h19.26V132.7z M261.15,132.7h-19.26v-19.26h19.26V132.7z
		 M237.61,22.47c-4.73,0-8.56,3.83-8.56,8.56s3.83,8.56,8.56,8.56s8.56-3.83,8.56-8.56S242.34,22.47,237.61,22.47z M246.17,9.63
		l21.4-3.75L237.61,0h-2.14v21.4h2.14l27.83-6.96L246.17,9.63z M237.61,41.74l-57.79,57.79v50.3H115.6v-50.3L57.81,41.74L0.02,99.53
		V323.2H115.6l0-67.43c0.01-17.73,14.38-32.09,32.11-32.09s32.11,14.37,32.11,32.09v67.43H295.4V99.53L237.61,41.74z M273.99,301.8
		h-72.77l0-46.08c-0.03-29.52-23.98-53.45-53.51-53.45S94.2,226.19,94.2,255.72v46.08H21.43V108.09L57.81,71.7l36.39,36.39v63.14
		h107.02v-63.14l36.39-36.39l36.39,36.39V301.8z"/>
	<g>
		<path class="st0" d="M5.14,358.79c0,0.22,0.15,0.37,0.37,0.37h5.58c0.22,0,0.37-0.15,0.37-0.37v-9.17c0-0.4,0.33-0.73,0.73-0.73
			h3.67c0.4,0,0.73,0.33,0.73,0.73v24.22c0,0.4-0.33,0.73-0.73,0.73h-3.67c-0.4,0-0.73-0.33-0.73-0.73v-9.17
			c0-0.22-0.15-0.37-0.37-0.37H5.5c-0.22,0-0.37,0.15-0.37,0.37v9.17c0,0.4-0.51,0.73-0.92,0.73H0.73c-0.4,0-0.73-0.33-0.73-0.73
			v-24.22c0-0.4,0.33-0.73,0.73-0.73H4.4c0.4,0,0.73,0.33,0.73,0.73V358.79z"/>
		<path class="st0" d="M64.86,356.66c0.11,0.37,0.55,0.37,0.66,0l2.05-7.15c0.11-0.44,0.37-0.62,0.77-0.62h5.06
			c0.4,0,0.73,0.33,0.73,0.73v24.22c0,0.4-0.33,0.73-0.73,0.73h-3.6c-0.4,0-0.73-0.33-0.73-0.73v-14.53c0-0.18-0.22-0.22-0.29-0.04
			l-1.72,5.5c-0.15,0.44-0.37,0.62-0.77,0.62h-2.16c-0.4,0-0.62-0.18-0.77-0.62l-1.76-5.5c-0.07-0.18-0.29-0.15-0.29,0.04v14.53
			c0,0.4-0.33,0.73-0.73,0.73h-3.59c-0.4,0-0.73-0.33-0.73-0.73v-24.22c0-0.4,0.33-0.73,0.73-0.73h5.06c0.4,0,0.66,0.18,0.77,0.62
			L64.86,356.66z"/>
		<path class="st0" d="M91.07,358.79c0,0.22,0.15,0.37,0.37,0.37h8.25c0.4,0,0.73,0.33,0.73,0.73v3.67c0,0.4-0.33,0.73-0.73,0.73
			h-8.25c-0.22,0-0.37,0.15-0.37,0.37v4.4c0,0.22,0.15,0.37,0.37,0.37h8.69c0.4,0,0.73,0.33,0.73,0.73v3.67
			c0,0.4-0.33,0.73-0.73,0.73H86.67c-0.4,0-0.73-0.33-0.73-0.73v-24.22c0-0.4,0.33-0.73,0.73-0.73h13.32c0.4,0,0.73,0.33,0.73,0.73
			v3.67c0,0.4-0.33,0.73-0.73,0.73h-8.55c-0.22,0-0.37,0.15-0.37,0.37V358.79z"/>
		<path class="st0" d="M117.65,358.79c0,0.22,0.15,0.37,0.37,0.37h8.25c0.4,0,0.73,0.33,0.73,0.73v3.67c0,0.4-0.33,0.73-0.73,0.73
			h-8.25c-0.22,0-0.37,0.15-0.37,0.37v4.4c0,0.22,0.15,0.37,0.37,0.37h8.69c0.4,0,0.73,0.33,0.73,0.73v3.67
			c0,0.4-0.33,0.73-0.73,0.73h-13.47c-0.4,0-0.73-0.33-0.73-0.73v-24.22c0-0.4,0.33-0.73,0.73-0.73h13.32c0.4,0,0.73,0.33,0.73,0.73
			v3.67c0,0.4-0.33,0.73-0.73,0.73h-8.55c-0.22,0-0.37,0.15-0.37,0.37V358.79z"/>
		<path class="st0" d="M155.6,373.84c0,0.4-0.33,0.73-0.73,0.73h-4.33c-0.62,0-0.88-0.33-0.99-0.62l-4.99-12.88
			c-0.07-0.22-0.33-0.15-0.33,0.07v12.7c0,0.4-0.33,0.73-0.73,0.73h-3.67c-0.4,0-0.73-0.33-0.73-0.73v-24.22
			c0-0.4,0.33-0.73,0.73-0.73h4.37c0.55,0,0.81,0.33,0.92,0.66l5.03,13.94c0.07,0.22,0.33,0.15,0.33-0.07v-13.8
			c0-0.4,0.33-0.73,0.73-0.73h3.67c0.4,0,0.73,0.33,0.73,0.73V373.84z"/>
		<path class="st0" d="M172.53,369.07c0,0.22,0.15,0.37,0.37,0.37h9.17c0.4,0,0.73,0.33,0.73,0.73v3.67c0,0.4-0.33,0.73-0.73,0.73
			h-13.94c-0.4,0-0.73-0.33-0.73-0.73v-24.22c0-0.4,0.33-0.73,0.73-0.73h3.67c0.4,0,0.73,0.33,0.73,0.73V369.07z"/>
		<path class="st0" d="M199.36,354.21c0-0.22-0.15-0.37-0.37-0.37h-3.67c-0.4,0-0.73-0.33-0.73-0.73v-3.49
			c0-0.4,0.33-0.73,0.73-0.73h13.21c0.4,0,0.73,0.33,0.73,0.73v3.49c0,0.4-0.33,0.73-0.73,0.73h-3.67c-0.22,0-0.37,0.15-0.37,0.37
			v15.04c0,0.22,0.15,0.37,0.37,0.37h4.04c0.4,0,0.73,0.33,0.73,0.73v3.49c0,0.4-0.33,0.73-0.73,0.73h-13.94
			c-0.4,0-0.73-0.33-0.73-0.73v-3.49c0-0.4,0.33-0.73,0.73-0.73H199c0.22,0,0.37-0.15,0.37-0.37V354.21z"/>
		<path class="st0" d="M237.57,373.84c0,0.4-0.33,0.73-0.73,0.73h-4.33c-0.62,0-0.88-0.33-0.99-0.62l-4.99-12.88
			c-0.07-0.22-0.33-0.15-0.33,0.07v12.7c0,0.4-0.33,0.73-0.73,0.73h-3.67c-0.4,0-0.73-0.33-0.73-0.73v-24.22
			c0-0.4,0.33-0.73,0.73-0.73h4.37c0.55,0,0.81,0.33,0.92,0.66l5.03,13.94c0.07,0.22,0.33,0.15,0.33-0.07v-13.8
			c0-0.4,0.33-0.73,0.73-0.73h3.67c0.4,0,0.73,0.33,0.73,0.73V373.84z"/>
		<path class="st0" d="M265.88,373.84c0,0.4-0.33,0.73-0.73,0.73h-4.33c-0.62,0-0.88-0.33-0.99-0.62l-4.99-12.88
			c-0.07-0.22-0.33-0.15-0.33,0.07v12.7c0,0.4-0.33,0.73-0.73,0.73h-3.67c-0.4,0-0.73-0.33-0.73-0.73v-24.22
			c0-0.4,0.33-0.73,0.73-0.73h4.37c0.55,0,0.81,0.33,0.92,0.66l5.03,13.94c0.07,0.22,0.33,0.15,0.33-0.07v-13.8
			c0-0.4,0.33-0.73,0.73-0.73h3.67c0.4,0,0.73,0.33,0.73,0.73V373.84z"/>
		<path class="st0" d="M281.28,374.02c-0.07,0.33-0.37,0.55-0.7,0.55h-3.85c-0.59,0-0.81-0.4-0.73-0.73l6.57-24.4
			c0.07-0.33,0.37-0.55,0.7-0.55h4.92c0.33,0,0.62,0.22,0.7,0.55l6.53,24.4c0.07,0.33-0.15,0.73-0.73,0.73h-3.85
			c-0.33,0-0.59-0.22-0.7-0.55l-1.14-3.78c-0.07-0.29-0.22-0.55-0.55-0.55h-5.58c-0.33,0-0.48,0.22-0.55,0.55L281.28,374.02z
			 M283.7,364.15c-0.07,0.29,0.07,0.4,0.29,0.4h3.38c0.22,0,0.37-0.11,0.29-0.4l-1.76-8.8c-0.04-0.11-0.07-0.15-0.18-0.15h-0.07
			c-0.11,0-0.15,0.04-0.18,0.15L283.7,364.15z"/>
		<path class="st0" d="M40.71,353.66h2.51c0.4,0,0.73-0.33,0.73-0.73v-3.3c0-0.4-0.33-0.73-0.73-0.73H29.6
			c-0.4,0-0.73,0.33-0.73,0.73v3.3c0,0.4,0.33,0.73,0.73,0.73h2.54l-5.43,20.18c-0.07,0.33,0.15,0.73,0.73,0.73h3.85
			c0.33,0,0.62-0.22,0.7-0.55l1.03-3.78c0.07-0.33,0.22-0.55,0.55-0.55h5.58c0.33,0,0.48,0.26,0.55,0.55l1.14,3.78
			c0.11,0.33,0.37,0.55,0.7,0.55h3.85c0.59,0,0.81-0.4,0.73-0.73L40.71,353.66z M38.08,364.55H34.7c-0.22,0-0.37-0.11-0.29-0.4
			l1.76-8.8c0.04-0.11,0.07-0.15,0.18-0.15h0.07c0.11,0,0.15,0.04,0.18,0.15l1.76,8.8C38.45,364.44,38.3,364.55,38.08,364.55z"/>
	</g>
</g>
</svg>
