<?xml version="1.0" encoding="utf-8"?>
<!-- Generator: Adobe Illustrator 23.0.1, SVG Export Plug-In . SVG Version: 6.00 Build 0)  -->
<svg version="1.1" id="Layer_1" xmlns="http://www.w3.org/2000/svg" xmlns:xlink="http://www.w3.org/1999/xlink" x="0px" y="0px"
	 viewBox="0 0 700 347.8" style="enable-background:new 0 0 700 347.8;" xml:space="preserve">
<style type="text/css">
	.st0{fill:#FFFFFF;}
</style>
<path class="st0" d="M97,272.92v13.02h15.85v61.85h15.08v-61.85h15.73v-13.02H97z M178.46,281.28l6.62,37.44h-13.24L178.46,281.28z
	 M167.83,272.92l-15.08,74.87h14l3.04-17.15h17.36l3.04,17.15h14.87l-15.08-74.87H167.83z M230.89,272.92l-9.66,9.66v25.72
	l8.24,8.14h20.83l2.39,2.5v13.89l-3.14,3.14h-10.42l-3.14-3.14v-7.38h-15.09v12.81l9.55,9.55h27.56l9.66-9.66v-26.26l-8.14-8.25
	h-20.83l-2.39-2.39V287.9l3.15-3.15h9.87l3.15,3.15v7.38h15.08v-12.81l-9.55-9.55H230.89z M319.78,272.92l-18.12,39.17v-39.17
	h-15.08v74.87h15.08v-14.76l8.46-16.6l10.31,31.36h15.95l-16.06-43.84l15.3-31.03H319.78z M385.19,272.92v59.03l-3.58,3.58h-9.22
	l-3.58-3.58v-59.03h-15.08v65l9.87,9.87h26.69l9.99-9.87v-65H385.19z M428.91,272.92l-9.66,9.66v25.72l8.25,8.14h20.84l2.39,2.5
	v13.89l-3.15,3.14h-10.42l-3.15-3.14v-7.38h-15.08v12.81l9.55,9.55h27.56l9.66-9.66v-26.26l-8.14-8.25h-20.84l-2.39-2.39V287.9
	l3.15-3.15h9.87l3.14,3.15v7.38h15.08v-12.81l-9.55-9.55H428.91z M493.77,272.92l-9.66,9.66v25.72l8.25,8.14h20.83l2.39,2.5v13.89
	l-3.15,3.14h-10.42l-3.15-3.14v-7.38h-15.08v12.81l9.55,9.55h27.56l9.66-9.66v-26.26l-8.14-8.25h-20.83l-2.39-2.39V287.9l3.15-3.15
	h9.87l3.15,3.15v7.38h15.08v-12.81l-9.55-9.55H493.77z M572.18,281.28l6.62,37.44h-13.24L572.18,281.28z M561.54,272.92
	l-15.08,74.87h14l3.04-17.15h17.36l3.04,17.15h14.87l-15.08-74.87H561.54z"/>
<path class="st0" d="M32.34,164.41v31.14H15.08v-31.14H0v74.87h15.08v-29.52h17.25v29.52h14.97v-74.87H32.34z M90.56,172.77
	l6.62,37.44H83.94L90.56,172.77z M79.93,164.41l-15.08,74.87h14l3.04-17.15h17.36l3.04,17.15h14.86l-15.08-74.87H79.93z
	 M181.32,164.41l-11.83,60.22l-11.83-60.22h-22.68v74.87h12.48v-63.05l13.13,63.05h16.28L190,176.24v63.05h14.22v-74.87H181.32z
	 M224.14,164.41v74.87h39.82v-12.48h-24.74v-19.32h22.25v-12.48h-22.25v-18.12h24.53v-12.48H224.14z M282.66,164.41v74.87h39.82
	v-12.48h-24.74v-19.32h22.24v-12.48h-22.24v-18.12h24.52v-12.48H282.66z M375.41,164.41v46.44l-20.4-46.44h-13.78v74.87h13.35
	v-47.09l20.18,47.09h14v-74.87H375.41z M408.62,164.41v74.87h36.24v-12.7h-21.16v-62.18H408.62z M461.59,164.41v11.07h10.09v52.74
	h-10.09v11.07h35.27v-11.07h-10.09v-52.74h10.09v-11.07H461.59z M549.42,164.41v46.44l-20.4-46.44h-13.78v74.87h13.35v-47.09
	l20.18,47.09h14v-74.87H549.42z M616.87,164.41v46.44l-20.4-46.44h-13.78v74.87h13.35v-47.09l20.18,47.09h14v-74.87H616.87z
	 M673.41,172.77l6.62,37.44h-13.24L673.41,172.77z M662.78,164.41l-15.08,74.87h14l3.04-17.15h17.36l3.04,17.15H700l-15.08-74.87
	H662.78z M77.76,157.9h10.42v-10.63H77.76V157.9z M94.36,157.9h10.53v-10.63H94.36V157.9z"/>
<g>
	<path class="st0" d="M546.17,101.31c-2.55-1.37-5.55-0.46-6.92,2.09c-1.33,2.48-0.42,5.48,2.06,6.81c2.48,1.33,5.55,0.46,6.88-2.02
		C549.52,105.71,548.65,102.63,546.17,101.31 M552.47,49.26c-2.26-1-4.84-0.01-5.81,2.17c-0.93,2.1,0.1,4.8,2.2,5.73
		c2.18,0.97,4.77-0.03,5.73-2.2C555.57,52.79,554.58,50.2,552.47,49.26 M537.92,42.79c-2.26-1-4.73-0.05-5.74,2.21
		c-0.97,2.18,0.03,4.77,2.13,5.7c2.18,0.97,4.85,0.01,5.81-2.17C541.09,46.35,540.1,43.76,537.92,42.79 M537.22,71.39l-13.19,18.75
		c-5.55,2.2-8.43,2.4-11.63,0.98c-4.44-1.97-5.28-6.17-2.5-12.4c5.33-11.99,16.15-18.08,25.11-14.1c0.31,0.14,0.7,0.31,1.21,0.63
		L537.22,71.39z M544.81,65.44l-2.32,1.02c-2.14-2.53-3.95-3.9-6.83-5.18c-11.91-5.3-26.29,1.45-32.38,15.15
		c-3.74,8.41-2.01,15.42,4.45,18.3c3.97,1.77,8.15,1.39,14.74-1.28c-2.04,4.59-1.59,7.13,1.61,8.55c2.34,1.04,4.87,1.42,11.02,1.64
		l1.04-2.34c-3-0.59-4-0.85-4.94-1.26c-2.65-1.18-3.45-2.93-2.41-5.27c0.59-1.32,1.3-2.5,3.24-5.18l8.93-12.53
		c3.58-5.12,6.26-8.41,7.91-9.82L544.81,65.44z M514.68,29.41l-13.05-1.97l-0.75,2.08l6.85,3.37l-21.81,36.52
		c-3.17,5.29-4.29,7.42-4.93,9.18c-1.24,3.45,0.13,6.2,3.73,7.5c2.81,1.01,6.3,1.36,11.8,1.16l0.89-2.49
		c-3.39-0.13-4.95-0.33-6.24-0.79c-2.81-1.01-3.84-2.92-2.89-5.56c0.49-1.36,1.28-2.8,3.13-5.94l22.55-37.34
		c0.48-0.82,0.98-1.73,1.49-2.63c0.64-1.04,0.92-1.57,1.37-2.31L514.68,29.41z M491.26,21.38l-13.15-1.16l-0.62,2.13l7.04,2.94
		l-19.51,37.8c-2.83,5.48-3.83,7.67-4.35,9.47c-1.02,3.52,0.51,6.18,4.19,7.25c2.86,0.83,6.37,0.97,11.85,0.43l0.74-2.54
		c-3.4,0.08-4.96-0.02-6.27-0.4c-2.86-0.83-4.01-2.68-3.23-5.38c0.4-1.39,1.1-2.87,2.75-6.12l20.2-38.67
		c0.43-0.85,0.87-1.79,1.32-2.72c0.58-1.07,0.83-1.62,1.23-2.39L491.26,21.38z M437.92,49.81c4.59-9.19,10.27-13.85,15.34-12.71
		c2.49,0.56,3.96,2.98,3.38,5.56c-0.65,2.91-2.99,5.18-6.7,6.53C446.61,50.37,443.25,50.57,437.92,49.81 M456.81,65.23
		c-6.49,3.61-10.84,4.73-15.08,3.78c-5.15-1.16-7.45-6.12-5.92-12.94c0.26-1.16,0.59-2.23,1.05-3.52
		c14.89,2.12,24.02-0.81,25.72-8.38c1.1-4.9-1.56-8.99-6.63-10.13c-3.49-0.78-7.84-0.1-12.03,1.84
		c-7.5,3.47-13.15,10.76-15.07,19.32c-2.11,9.39,1.38,16.03,9.28,17.8c5.57,1.25,11.08,0.04,17.8-3.86L456.81,65.23z M408.55,3.59
		l-13.6,0.76l-0.29,2.2l7.83,1.9l-19.12,55.03l7.18,0.96l9.06-27.93c5.77-3.96,10.38-5.66,13.76-5.21c2.7,0.36,3.98,2.42,3.54,5.71
		c-0.2,1.52-0.65,2.92-1.6,5.55l-5.72,15.14c-0.65,1.63-1.01,3.04-1.19,4.4c-0.46,3.46,1.24,5.49,5.21,6.02
		c2.45,0.33,5.67-0.02,10.75-1.31l0.3-2.28c-2.1,0.24-3.65,0.29-4.83,0.13c-2.79-0.37-4.1-2.1-3.74-4.8
		c0.16-1.18,0.64-2.84,1.58-5.38l4.7-12.69c1.47-3.93,1.96-5.67,2.2-7.44c0.54-4.05-1.88-7.13-5.94-7.67
		c-4.65-0.62-9.14,0.84-17.54,5.82l4.72-14.07c1.56-4.61,3.05-8.7,5.37-14.5L408.55,3.59z M376.97,4.33
		c-2.47-0.08-4.49,1.82-4.56,4.2c-0.07,2.3,1.91,4.41,4.2,4.48c2.38,0.08,4.41-1.82,4.48-4.2C381.17,6.42,379.27,4.4,376.97,4.33
		 M361.05,3.82c-2.47-0.08-4.4,1.74-4.48,4.2c-0.08,2.39,1.82,4.41,4.12,4.48c2.39,0.08,4.49-1.82,4.57-4.2
		C365.33,5.92,363.43,3.9,361.05,3.82 M371.2,30.57l-5.14,22.34c-4.31,4.13-6.91,5.41-10.4,5.3c-4.85-0.15-7.21-3.72-7-10.53
		c0.42-13.11,8.14-22.84,17.93-22.53c0.34,0.01,0.77,0.03,1.36,0.13L371.2,30.57z M375.98,22.2l-1.76,1.82
		c-2.93-1.54-5.13-2.12-8.28-2.22c-13.03-0.41-23.8,11.27-24.27,26.25c-0.29,9.2,3.96,15.04,11.02,15.27
		c4.34,0.14,8.07-1.79,13.17-6.74c-0.16,5.03,1.22,7.2,4.71,7.31c2.55,0.08,5.05-0.52,10.82-2.64l0.08-2.55
		c-3,0.59-4.03,0.72-5.05,0.69c-2.9-0.09-4.3-1.41-4.22-3.97c0.05-1.45,0.26-2.8,1.04-6.02l3.54-14.97
		c1.39-6.09,2.62-10.15,3.62-12.07L375.98,22.2z M334.4,0.1l-12.82,3.13l0.1,2.21l7.61,0.52l-6.32,42.07
		c-0.92,6.1-1.16,8.49-1.07,10.37c0.16,3.66,2.47,5.69,6.3,5.52c2.98-0.13,6.35-1.14,11.36-3.4l-0.12-2.64
		c-3.19,1.17-4.71,1.57-6.07,1.63c-2.98,0.13-4.66-1.24-4.79-4.05c-0.06-1.45,0.12-3.08,0.64-6.68l6.7-43.11
		c0.13-0.94,0.25-1.97,0.38-3c0.2-1.2,0.26-1.8,0.39-2.66L334.4,0.1z M266.88,28.83l-12.01,4.76l0.34,2.1l7.1,0.16l-1.5,35.52
		l7.15-1.14l0.69-29.27c4.61-5.74,8.23-8.47,11.68-9.02c2.78-0.44,4.49,1.1,5.04,4.55c0.23,1.43,0.3,3.49,0.13,5.67l-1.14,16.14
		c-0.18,2.1-0.14,3.47,0.05,4.65c0.54,3.37,2.84,4.81,6.62,4.21c2.78-0.44,5.04-1.4,10.02-4.27l-0.38-2.36
		c-1.94,0.83-3.33,1.31-4.59,1.51c-2.69,0.43-4.53-0.83-4.95-3.44c-0.15-0.93-0.15-2.56,0.04-5.7l0.78-13.5
		c0.24-4.44,0.25-5.99-0.04-7.84c-0.62-3.87-3.84-6.2-7.87-5.56c-4.63,0.74-8.43,3.41-15.28,10.8l0.23-8.32L266.88,28.83z
		 M239.38,43.46l1.74,22.86c-2.88,5.22-4.98,7.22-8.35,8.15c-4.68,1.3-7.99-1.41-9.81-7.98c-3.51-12.64,0.97-24.23,10.41-26.85
		c0.33-0.09,0.74-0.2,1.34-0.28L239.38,43.46z M241.46,34.05l-1.14,2.26c-3.26-0.6-5.53-0.5-8.57,0.34
		c-12.56,3.48-19.37,17.84-15.36,32.28c2.46,8.87,8.25,13.18,15.07,11.29c4.19-1.16,7.17-4.11,10.57-10.36
		c1.34,4.84,3.31,6.51,6.67,5.58c2.46-0.68,4.66-2,9.55-5.74l-0.68-2.46c-2.69,1.45-3.63,1.89-4.62,2.16
		c-2.79,0.77-4.53-0.07-5.21-2.53c-0.39-1.39-0.59-2.75-0.8-6.06l-1.07-15.35c-0.49-6.23-0.52-10.47-0.14-12.61L241.46,34.05z
		 M173.65,33.1l-11.55,7.21l0.8,2.07l7.78-2.1l9.73,57.44l6.75-2.61l-5.5-28.84c3.15-6.25,6.38-9.96,9.55-11.19
		c2.54-0.98,4.65,0.21,5.85,3.31c0.56,1.43,0.84,2.87,1.27,5.63l2.28,16.02c0.22,1.74,0.58,3.15,1.07,4.43
		c1.26,3.26,3.73,4.22,7.47,2.77c2.3-0.89,4.97-2.75,8.79-6.33l-0.83-2.15c-1.72,1.22-3.06,2.01-4.17,2.44
		c-2.62,1.01-4.61,0.14-5.59-2.4c-0.43-1.11-0.81-2.79-1.2-5.47l-1.99-13.39c-0.6-4.15-1.01-5.91-1.66-7.58
		c-1.48-3.81-5.08-5.34-8.9-3.86c-4.37,1.69-7.6,5.14-12.57,13.55l-2.64-14.6c-0.85-4.79-1.51-9.1-2.27-15.29L173.65,33.1z
		 M140.36,53.84l1.39,2.93l5.11-1.95l1.39,0.75l12.03,46.63l-0.68,1.74l-4.74,2.72l1.39,2.92l18.78-8.91l-1.39-2.93l-5.19,1.99
		l-1.47-0.72l-12.03-46.63l0.68-1.74l4.9-2.8l-1.39-2.92L140.36,53.84z"/>
</g>
</svg>
